<svg width="17" height="17" viewBox="0 0 17 17" fill="none" xmlns="http://www.w3.org/2000/svg">
<path d="M14.865 6.69423C14.865 6.36631 14.5992 6.10048 14.2712 6.10048C13.9433 6.10048 13.6775 6.36631 13.6775 6.69423H14.865ZM3.32249 6.69423C3.32249 6.36631 3.05666 6.10048 2.72874 6.10048C2.40082 6.10048 2.13499 6.36631 2.13499 6.69423H3.32249ZM10.4897 15.3931L10.3531 14.8153L10.3531 14.8153L10.4897 15.3931ZM6.51033 15.3931L6.64684 14.8153L6.64684 14.8153L6.51033 15.3931ZM10.7392 2.9696L10.3178 3.38795L10.3178 3.38795L10.7392 2.9696ZM15.2037 8.30854C15.4347 8.54123 15.8107 8.54256 16.0434 8.31151C16.276 8.08046 16.2774 7.70452 16.0463 7.47183L15.2037 8.30854ZM6.26083 2.9696L6.68216 3.38795L6.68216 3.38795L6.26083 2.9696ZM0.95367 7.47183C0.722619 7.70452 0.723952 8.08046 0.956646 8.31151C1.18934 8.54256 1.56528 8.54123 1.79633 8.30854L0.95367 7.47183ZM6.69375 13.5036L6.11019 13.394L6.11019 13.394L6.69375 13.5036ZM6.70906 13.422L7.29262 13.5315L7.29262 13.5315L6.70906 13.422ZM10.2909 13.422L9.70738 13.5315L9.70738 13.5315L10.2909 13.422ZM10.3062 13.5036L10.8898 13.394L10.8898 13.394L10.3062 13.5036ZM10.0768 15.2702L9.54069 15.0151L9.54069 15.0151L10.0768 15.2702ZM9.44824 15.2094C9.30733 15.5055 9.43313 15.8597 9.72923 16.0006C10.0253 16.1416 10.3796 16.0158 10.5205 15.7197L9.44824 15.2094ZM6.92318 15.2702L6.38704 15.5254L6.38704 15.5254L6.92318 15.2702ZM6.47949 15.7197C6.6204 16.0158 6.97467 16.1416 7.27077 16.0006C7.56687 15.8597 7.69267 15.5055 7.55176 15.2094L6.47949 15.7197ZM7.99417 12.017L7.83542 11.4449L7.83542 11.4449L7.99417 12.017ZM9.00583 12.017L9.16458 11.4449L9.16458 11.4449L9.00583 12.017ZM13.6775 6.69423V10.5879H14.865V6.69423H13.6775ZM3.32249 10.5879V6.69423H2.13499V10.5879H3.32249ZM10.3531 14.8153C9.13424 15.1032 7.86575 15.1032 6.64684 14.8153L6.37382 15.971C7.77227 16.3013 9.22771 16.3013 10.6262 15.971L10.3531 14.8153ZM6.64684 14.8153C4.70206 14.3559 3.32249 12.6069 3.32249 10.5879H2.13499C2.13499 13.1522 3.88792 15.3837 6.37382 15.971L6.64684 14.8153ZM10.6262 15.971C13.1121 15.3837 14.865 13.1522 14.865 10.5879H13.6775C13.6775 12.6069 12.2979 14.3559 10.3531 14.8153L10.6262 15.971ZM10.3178 3.38795L15.2037 8.30854L16.0463 7.47183L11.1605 2.55124L10.3178 3.38795ZM5.8395 2.55124L0.95367 7.47183L1.79633 8.30854L6.68216 3.38795L5.8395 2.55124ZM11.1605 2.55124C10.6446 2.03165 10.2164 1.59861 9.83146 1.30284C9.43302 0.996674 9.01124 0.78125 8.5 0.78125V1.96875C8.6446 1.96875 8.81463 2.01909 9.10792 2.24446C9.41474 2.48022 9.77821 2.84448 10.3178 3.38795L11.1605 2.55124ZM6.68216 3.38795C7.22179 2.84448 7.58526 2.48022 7.89208 2.24446C8.18537 2.01909 8.3554 1.96875 8.5 1.96875V0.78125C7.98876 0.78125 7.56698 0.996674 7.16854 1.30284C6.78362 1.59861 6.35542 2.03165 5.8395 2.55124L6.68216 3.38795ZM7.27731 13.6131L7.29262 13.5315L6.1255 13.3125L6.11019 13.394L7.27731 13.6131ZM9.70738 13.5315L9.72269 13.6131L10.8898 13.394L10.8745 13.3125L9.70738 13.5315ZM9.54069 15.0151L9.44824 15.2094L10.5205 15.7197L10.613 15.5254L9.54069 15.0151ZM6.38704 15.5254L6.47949 15.7197L7.55176 15.2094L7.45931 15.0151L6.38704 15.5254ZM9.72269 13.6131C9.81187 14.0882 9.748 14.5795 9.54069 15.0151L10.613 15.5254C10.9284 14.8625 11.0253 14.1159 10.8898 13.394L9.72269 13.6131ZM6.11019 13.394C5.9747 14.1159 6.0716 14.8625 6.38704 15.5254L7.45931 15.0151C7.252 14.5795 7.18813 14.0882 7.27731 13.6131L6.11019 13.394ZM8.15292 12.5892C8.3801 12.5261 8.6199 12.5261 8.84708 12.5892L9.16458 11.4449C8.72965 11.3242 8.27034 11.3242 7.83542 11.4449L8.15292 12.5892ZM10.8745 13.3125C10.706 12.4147 10.0441 11.6889 9.16458 11.4449L8.84708 12.5892C9.28655 12.7111 9.62176 13.0754 9.70738 13.5315L10.8745 13.3125ZM7.29262 13.5315C7.37824 13.0754 7.71345 12.7111 8.15292 12.5892L7.83542 11.4449C6.95592 11.6889 6.29401 12.4148 6.1255 13.3125L7.29262 13.5315Z" fill="#EEF0F2"/>
</svg>
