<svg width="19" height="19" viewBox="0 0 19 19" fill="none" xmlns="http://www.w3.org/2000/svg">
<path d="M7.28329 5.54166L7.12401 5.9209C6.86686 6.53316 6.80223 7.2092 6.93871 7.85909C7.14695 8.85072 7.93639 9.61661 8.93387 9.79474L9.0217 9.81042C9.33804 9.86691 9.66188 9.86691 9.97822 9.81042L10.066 9.79474C11.0635 9.61661 11.853 8.85072 12.0612 7.85909C12.1977 7.2092 12.1331 6.53316 11.8759 5.9209L11.7166 5.54166" stroke="#363853" stroke-width="1.1875" stroke-linecap="round"/>
<path d="M16.0082 11.9882C15.5568 13.9732 14.0139 15.5328 12.0353 16.0116C10.3724 16.4139 8.62784 16.4139 6.965 16.0116C4.9864 15.5328 3.44344 13.9732 2.99205 11.9882C2.58874 10.2146 2.68683 8.36377 3.27533 6.64275L3.36277 6.38706C4.01031 4.49339 5.62796 3.09552 7.59552 2.7294L8.13431 2.62914C9.03713 2.46114 9.96319 2.46114 10.866 2.62914L11.4048 2.72939C13.3723 3.09552 14.99 4.49339 15.6375 6.38708L15.725 6.64275C16.3135 8.36378 16.4115 10.2146 16.0082 11.9882Z" stroke="#363853" stroke-width="1.1875"/>
</svg>
