<svg width="19" height="19" viewBox="0 0 19 19" fill="none" xmlns="http://www.w3.org/2000/svg">
<path d="M2.65436 11.726L3.23181 11.5878L2.65436 11.726ZM2.65436 6.99277L3.23181 7.13095L2.65436 6.99277ZM16.3456 6.99278L15.7682 7.13095L16.3456 6.99278ZM16.3456 11.7259L15.7682 11.5878L16.3456 11.7259ZM11.9142 16.0699L11.7812 15.4912L11.9142 16.0699ZM7.08576 16.0699L6.95271 16.6485L7.08576 16.0699ZM7.08576 2.64885L7.21881 3.2275L7.08576 2.64885ZM11.9142 2.64885L11.7812 3.2275L11.9142 2.64885ZM3.23181 11.5878C2.88106 10.122 2.88106 8.59671 3.23181 7.13095L2.07691 6.85459C1.6827 8.50203 1.6827 10.2167 2.07691 11.8641L3.23181 11.5878ZM15.7682 7.13095C16.1189 8.59671 16.1189 10.122 15.7682 11.5878L16.9231 11.8641C17.3173 10.2167 17.3173 8.50203 16.9231 6.8546L15.7682 7.13095ZM11.7812 15.4912C10.2808 15.8362 8.7192 15.8362 7.21882 15.4912L6.95271 16.6485C8.62821 17.0338 10.3718 17.0338 12.0473 16.6485L11.7812 15.4912ZM7.21881 3.2275C8.7192 2.8825 10.2808 2.8825 11.7812 3.2275L12.0473 2.0702C10.3718 1.68493 8.62821 1.68493 6.95271 2.0702L7.21881 3.2275ZM7.21882 15.4912C5.23473 15.035 3.69391 13.5189 3.23181 11.5878L2.07691 11.8641C2.64635 14.2438 4.53921 16.0936 6.95271 16.6485L7.21882 15.4912ZM12.0473 16.6485C14.4608 16.0936 16.3537 14.2438 16.9231 11.8641L15.7682 11.5878C15.3061 13.5189 13.7653 15.035 11.7812 15.4912L12.0473 16.6485ZM11.7812 3.2275C13.7653 3.68371 15.3061 5.19985 15.7682 7.13095L16.9231 6.8546C16.3537 4.47492 14.4608 2.62515 12.0473 2.0702L11.7812 3.2275ZM6.95271 2.0702C4.53921 2.62515 2.64635 4.47491 2.07691 6.85459L3.23181 7.13095C3.69391 5.19985 5.23472 3.68371 7.21881 3.2275L6.95271 2.0702ZM11.7408 16.625C11.7408 15.4662 11.7422 14.658 11.8258 14.0482C11.9069 13.4567 12.0553 13.1411 12.2864 12.9146L11.4551 12.0666C10.9625 12.5495 10.7491 13.1593 10.6493 13.8869C10.552 14.5961 10.5533 15.5004 10.5533 16.625H11.7408ZM16.0884 11.1875C14.9402 11.1875 14.0205 11.1863 13.2998 11.2812C12.5633 11.3783 11.9461 11.5853 11.4551 12.0666L12.2864 12.9146C12.5191 12.6865 12.8459 12.5388 13.455 12.4586C14.08 12.3762 14.9073 12.375 16.0884 12.375V11.1875Z" fill="#2D3B47"/>
<path d="M7.125 7.125H9.5M7.125 9.5H11.0833" stroke="#2D3B47" stroke-width="1.1875" stroke-linecap="round"/>
</svg>
