<svg width="19" height="19" viewBox="0 0 19 19" fill="none" xmlns="http://www.w3.org/2000/svg">
<path d="M7.02935 11.9706V8.67645M11.9706 11.9706V9.5M9.5 11.1471V7.02935M2.65436 11.9142C2.28188 10.3263 2.28188 8.6737 2.65436 7.08576C3.17013 4.88696 4.88697 3.17013 7.08576 2.65436C8.6737 2.28188 10.3263 2.28188 11.9142 2.65436C14.113 3.17013 15.8299 4.88697 16.3456 7.08576C16.7181 8.6737 16.7181 10.3263 16.3456 11.9142C15.8299 14.113 14.113 15.8299 11.9142 16.3456C10.3263 16.7181 8.6737 16.7181 7.08576 16.3456C4.88697 15.8299 3.17013 14.113 2.65436 11.9142Z" stroke="#2D3B47" stroke-width="1.1875" stroke-linecap="round"/>
</svg>
