<svg width="19" height="19" viewBox="0 0 19 19" fill="none" xmlns="http://www.w3.org/2000/svg">
<path d="M3.95834 15.1299C3.95834 13.2196 5.30205 11.5923 7.1282 11.2913L7.29269 11.2641C8.75498 11.0231 10.245 11.0231 11.7073 11.2641L11.8718 11.2913C13.698 11.5923 15.0417 13.2196 15.0417 15.1299C15.0417 15.9556 14.3937 16.625 13.5944 16.625H5.4056C4.6063 16.625 3.95834 15.9556 3.95834 15.1299Z" stroke="#2D3B47" stroke-width="1.1875"/>
<path d="M12.7327 5.49219C12.7327 7.21376 11.2854 8.60938 9.50002 8.60938C7.71468 8.60938 6.26738 7.21376 6.26738 5.49219C6.26738 3.77061 7.71468 2.375 9.50002 2.375C11.2854 2.375 12.7327 3.77061 12.7327 5.49219Z" stroke="#2D3B47" stroke-width="1.1875"/>
</svg>
